<svg xmlns="http://www.w3.org/2000/svg" width="1em" height="1em" viewBox="0 0 32 32">
	<g fill="none">
		<g filter="url(#f125idv)">
			<path stroke="url(#f125idg)" d="M27.28 16.625c-.775.712-.836 1.977-.804 2.586c1.101 0 2.565-.239 2.898-1.219c.465-1.367-1.125-2.258-2.094-1.367Z" />
			<path stroke="url(#f125id0)" d="M27.28 16.625c-.775.712-.836 1.977-.804 2.586c1.101 0 2.565-.239 2.898-1.219c.465-1.367-1.125-2.258-2.094-1.367Z" />
		</g>
		<path fill="url(#f125idh)" d="M26.898 19.7a5.71 5.71 0 0 0 1.473-.257c.607-.202 1.236-.583 1.476-1.29c.241-.708.067-1.35-.325-1.787l-.81.602c.207.181.32.476.189.863c-.093.273-.363.502-.847.664a4.52 4.52 0 0 1-1.076.198c0-.022.002-.043.004-.065c-.026.302-.063.727-.084 1.072" />
		<g filter="url(#f125idw)">
			<path stroke="url(#f125id1)" stroke-width="0.3" d="M27.28 16.625c-.775.712-.836 1.977-.804 2.586c1.101 0 2.565-.239 2.898-1.219c.465-1.367-1.125-2.258-2.094-1.367Z" />
			<path stroke="url(#f125id2)" stroke-width="0.3" d="M27.28 16.625c-.775.712-.836 1.977-.804 2.586c1.101 0 2.565-.239 2.898-1.219c.465-1.367-1.125-2.258-2.094-1.367Z" />
		</g>
		<g filter="url(#f125idx)">
			<path stroke="url(#f125idi)" d="M4.749 16.625c.775.712.836 1.977.805 2.586c-1.102 0-2.565-.239-2.899-1.219c-.465-1.367 1.125-2.258 2.094-1.367Z" />
		</g>
		<g filter="url(#f125idy)">
			<path stroke="url(#f125id3)" stroke-width="0.3" d="M4.749 16.625c.775.712.836 1.977.805 2.586c-1.102 0-2.565-.239-2.899-1.219c-.465-1.367 1.125-2.258 2.094-1.367Z" />
			<path stroke="url(#f125id4)" stroke-width="0.3" d="M4.749 16.625c.775.712.836 1.977.805 2.586c-1.102 0-2.565-.239-2.899-1.219c-.465-1.367 1.125-2.258 2.094-1.367Z" />
		</g>
		<g filter="url(#f125idz)">
			<path stroke="url(#f125idj)" stroke-linecap="round" d="M26.413 19.555c1.047.15 3.023.922 3.078 3.445" />
		</g>
		<g filter="url(#f125id10)">
			<path stroke="url(#f125idk)" stroke-linecap="round" stroke-width="0.3" d="M26.57 19.414c1.046.151 3.023.922 3.078 3.445" />
		</g>
		<g filter="url(#f125id11)">
			<path stroke="url(#f125idl)" stroke-linecap="round" d="M5.616 19.555c-1.047.15-3.023.922-3.078 3.445" />
		</g>
		<g filter="url(#f125id12)">
			<path stroke="url(#f125idm)" stroke-linecap="round" stroke-width="0.3" d="M5.65 19.555c-1.047.15-3.023.922-3.078 3.445" />
		</g>
		<g filter="url(#f125id13)">
			<path fill="url(#f125id5)" d="M4.999 2.59a.527.527 0 0 1 1.055 0v4.562a.527.527 0 1 1-1.055 0z" />
		</g>
		<g filter="url(#f125id14)">
			<path fill="url(#f125id6)" d="M25.976 2.59a.527.527 0 1 1 1.054 0v4.562a.527.527 0 0 1-1.054 0z" />
		</g>
		<g filter="url(#f125id15)">
			<path fill="#ff476b" d="M5.649 6.016a.65.65 0 0 0-.65.65v4.873c0 3.038 1.906 5.5 6.938 5.5h8.156c5.031 0 6.937-2.462 6.937-5.5V6.666a.65.65 0 0 0-.65-.65h-.647c-5.706.544-8.414 2.78-9.632 6.793c-.025.115-.152.115-.176 0c-1.176-3.934-3.923-6.25-9.63-6.793z" />
			<path fill="url(#f125idn)" d="M5.649 6.016a.65.65 0 0 0-.65.65v4.873c0 3.038 1.906 5.5 6.938 5.5h8.156c5.031 0 6.937-2.462 6.937-5.5V6.666a.65.65 0 0 0-.65-.65h-.647c-5.706.544-8.414 2.78-9.632 6.793c-.025.115-.152.115-.176 0c-1.176-3.934-3.923-6.25-9.63-6.793z" />
			<path fill="url(#f125id7)" d="M5.649 6.016a.65.65 0 0 0-.65.65v4.873c0 3.038 1.906 5.5 6.938 5.5h8.156c5.031 0 6.937-2.462 6.937-5.5V6.666a.65.65 0 0 0-.65-.65h-.647c-5.706.544-8.414 2.78-9.632 6.793c-.025.115-.152.115-.176 0c-1.176-3.934-3.923-6.25-9.63-6.793z" />
			<path fill="url(#f125id8)" d="M5.649 6.016a.65.65 0 0 0-.65.65v4.873c0 3.038 1.906 5.5 6.938 5.5h8.156c5.031 0 6.937-2.462 6.937-5.5V6.666a.65.65 0 0 0-.65-.65h-.647c-5.706.544-8.414 2.78-9.632 6.793c-.025.115-.152.115-.176 0c-1.176-3.934-3.923-6.25-9.63-6.793z" />
			<path fill="url(#f125id9)" d="M5.649 6.016a.65.65 0 0 0-.65.65v4.873c0 3.038 1.906 5.5 6.938 5.5h8.156c5.031 0 6.937-2.462 6.937-5.5V6.666a.65.65 0 0 0-.65-.65h-.647c-5.706.544-8.414 2.78-9.632 6.793c-.025.115-.152.115-.176 0c-1.176-3.934-3.923-6.25-9.63-6.793z" />
			<path fill="url(#f125ida)" d="M5.649 6.016a.65.65 0 0 0-.65.65v4.873c0 3.038 1.906 5.5 6.938 5.5h8.156c5.031 0 6.937-2.462 6.937-5.5V6.666a.65.65 0 0 0-.65-.65h-.647c-5.706.544-8.414 2.78-9.632 6.793c-.025.115-.152.115-.176 0c-1.176-3.934-3.923-6.25-9.63-6.793z" />
			<path fill="url(#f125idb)" d="M5.649 6.016a.65.65 0 0 0-.65.65v4.873c0 3.038 1.906 5.5 6.938 5.5h8.156c5.031 0 6.937-2.462 6.937-5.5V6.666a.65.65 0 0 0-.65-.65h-.647c-5.706.544-8.414 2.78-9.632 6.793c-.025.115-.152.115-.176 0c-1.176-3.934-3.923-6.25-9.63-6.793z" />
		</g>
		<g filter="url(#f125id16)">
			<path fill="url(#f125ido)" d="M5.108 19.008v.634a1 1 0 0 0 .292.706l8.855 8.883a2.484 2.484 0 0 0 3.519 0l8.855-8.883a1 1 0 0 0 .292-.706v-.634z" />
			<path fill="url(#f125idp)" d="M5.108 19.008v.634a1 1 0 0 0 .292.706l8.855 8.883a2.484 2.484 0 0 0 3.519 0l8.855-8.883a1 1 0 0 0 .292-.706v-.634z" />
			<path fill="url(#f125idq)" d="M5.108 19.008v.634a1 1 0 0 0 .292.706l8.855 8.883a2.484 2.484 0 0 0 3.519 0l8.855-8.883a1 1 0 0 0 .292-.706v-.634z" />
			<path fill="url(#f125idc)" d="M5.108 19.008v.634a1 1 0 0 0 .292.706l8.855 8.883a2.484 2.484 0 0 0 3.519 0l8.855-8.883a1 1 0 0 0 .292-.706v-.634z" />
		</g>
		<circle cx="7.022" cy="9.02" r="1.008" fill="#ff81d1" />
		<circle r="1.008" fill="#ffbaff" transform="matrix(-1 0 0 1 25.007 9.02)" />
		<circle cx="7.022" cy="13.051" r="1.008" fill="#ea72ce" />
		<circle r="1.008" fill="#ff8df3" transform="matrix(-1 0 0 1 25.007 13.05)" />
		<circle cx="10.026" cy="11.008" r="1.008" fill="url(#f125idd)" />
		<circle r="1.008" fill="url(#f125ide)" transform="matrix(-1 0 0 1 22.003 11.008)" />
		<circle cx="10.026" cy="14.992" r="1.008" fill="#ed5ddb" />
		<circle r="1.008" fill="#fd68e7" transform="matrix(-1 0 0 1 22.003 14.992)" />
		<circle cx="12.842" cy="13.051" r="1.008" fill="url(#f125idf)" />
		<circle r="1.008" fill="#ff78dc" transform="matrix(-1 0 0 1 19 13.023)" />
		<circle r="1.008" fill="#ff83eb" transform="matrix(-1 0 0 1 16.015 14.992)" />
		<circle r="1.002" fill="#f07bc2" transform="matrix(-1 0 0 1 9.013 21)" />
		<circle r="1.002" fill="#f67dc5" transform="matrix(-1 0 0 1 12.506 21)" />
		<circle r="1.002" fill="#fb82c9" transform="matrix(-1 0 0 1 16 21)" />
		<circle r="1.002" fill="url(#f125idr)" transform="matrix(-1 0 0 1 19.494 21)" />
		<circle r="1.002" fill="#f77dc8" transform="matrix(-1 0 0 1 12.506 24.485)" />
		<circle r="1.002" fill="#ff88d2" transform="matrix(-1 0 0 1 16 24.485)" />
		<circle r="1.002" fill="url(#f125ids)" transform="matrix(-1 0 0 1 16 27.97)" />
		<circle r="1.002" fill="url(#f125idt)" transform="matrix(-1 0 0 1 19.494 24.485)" />
		<circle r="1.002" fill="url(#f125idu)" transform="matrix(-1 0 0 1 22.987 21)" />
		<defs>
			<radialGradient id="f125id0" cx="0" cy="0" r="1" gradientTransform="rotate(134.433 11.576 14.255)scale(2.23192 4.35969)" gradientUnits="userSpaceOnUse">
				<stop offset=".151" stop-color="#ff556f" />
				<stop offset="1" stop-color="#ff556f" stop-opacity="0" />
			</radialGradient>
			<radialGradient id="f125id1" cx="0" cy="0" r="1" gradientTransform="matrix(1.0625 -2.79535 .4007 .1523 26.343 19.063)" gradientUnits="userSpaceOnUse">
				<stop offset=".515" stop-color="#f66197" />
				<stop offset="1" stop-color="#f14b89" stop-opacity="0" />
			</radialGradient>
			<radialGradient id="f125id2" cx="0" cy="0" r="1" gradientTransform="rotate(133.431 11.145 14.667)scale(1.0758 2.41162)" gradientUnits="userSpaceOnUse">
				<stop stop-color="#ff647f" />
				<stop offset="1" stop-color="#ff647f" stop-opacity="0" />
			</radialGradient>
			<radialGradient id="f125id3" cx="0" cy="0" r="1" gradientTransform="matrix(-1.06252 -2.79535 .4007 -.1523 5.686 19.063)" gradientUnits="userSpaceOnUse">
				<stop offset=".515" stop-color="#f66197" />
				<stop offset="1" stop-color="#f14b89" stop-opacity="0" />
			</radialGradient>
			<radialGradient id="f125id4" cx="0" cy="0" r="1" gradientTransform="matrix(1.17188 -.46875 1.0508 2.62699 2.14 17.906)" gradientUnits="userSpaceOnUse">
				<stop stop-color="#ff647f" />
				<stop offset="1" stop-color="#ff647f" stop-opacity="0" />
			</radialGradient>
			<radialGradient id="f125id5" cx="0" cy="0" r="1" gradientTransform="matrix(0 -4.0625 .62113 0 5.85 6.125)" gradientUnits="userSpaceOnUse">
				<stop stop-color="#ff689d" />
				<stop offset="1" stop-color="#f44175" />
			</radialGradient>
			<radialGradient id="f125id6" cx="0" cy="0" r="1" gradientTransform="matrix(0 -4.0625 .62113 0 26.827 6.125)" gradientUnits="userSpaceOnUse">
				<stop stop-color="#ff689d" />
				<stop offset="1" stop-color="#f44175" />
			</radialGradient>
			<radialGradient id="f125id7" cx="0" cy="0" r="1" gradientTransform="rotate(140.895 10.577 9.035)scale(7.53073 3.43493)" gradientUnits="userSpaceOnUse">
				<stop offset=".369" stop-color="#ff578a" />
				<stop offset="1" stop-color="#ff578a" stop-opacity="0" />
			</radialGradient>
			<radialGradient id="f125id8" cx="0" cy="0" r="1" gradientTransform="rotate(42.474 -7.912 15.129)scale(9.02438 3.42355)" gradientUnits="userSpaceOnUse">
				<stop offset=".369" stop-color="#ff578a" />
				<stop offset="1" stop-color="#ff578a" stop-opacity="0" />
			</radialGradient>
			<radialGradient id="f125id9" cx="0" cy="0" r="1" gradientTransform="matrix(7.375 -4.40625 7.1841 12.02446 5.796 13.719)" gradientUnits="userSpaceOnUse">
				<stop offset=".284" stop-color="#d94363" />
				<stop offset="1" stop-color="#d94363" stop-opacity="0" />
			</radialGradient>
			<radialGradient id="f125ida" cx="0" cy="0" r="1" gradientTransform="rotate(-134.04 9.243 3.344)scale(3.95593 4.04402)" gradientUnits="userSpaceOnUse">
				<stop stop-color="#ff6a8f" />
				<stop offset="1" stop-color="#ff6a8f" stop-opacity="0" />
			</radialGradient>
			<radialGradient id="f125idb" cx="0" cy="0" r="1" gradientTransform="matrix(0 3.82031 -.34375 0 16.015 13.219)" gradientUnits="userSpaceOnUse">
				<stop stop-color="#ff506f" />
				<stop offset="1" stop-color="#ff506f" stop-opacity="0" />
			</radialGradient>
			<radialGradient id="f125idc" cx="0" cy="0" r="1" gradientTransform="rotate(135.49 6.294 16.868)scale(6.48556 3.1894)" gradientUnits="userSpaceOnUse">
				<stop stop-color="#ff5587" />
				<stop offset="1" stop-color="#ff5587" stop-opacity="0" />
			</radialGradient>
			<radialGradient id="f125idd" cx="0" cy="0" r="1" gradientTransform="rotate(149.014 4.07 6.748)scale(1.69958)" gradientUnits="userSpaceOnUse">
				<stop stop-color="#ffa7fe" />
				<stop offset="1" stop-color="#ff7ee7" />
			</radialGradient>
			<radialGradient id="f125ide" cx="0" cy="0" r="1" gradientTransform="matrix(1.55859 -1 1 1.55859 0 1.594)" gradientUnits="userSpaceOnUse">
				<stop stop-color="#ff9dfd" />
				<stop offset="1" stop-color="#ff8de9" />
			</radialGradient>
			<radialGradient id="f125idf" cx="0" cy="0" r="1" gradientTransform="rotate(149.014 5.195 8.16)scale(1.69958)" gradientUnits="userSpaceOnUse">
				<stop stop-color="#ffa2ff" />
				<stop offset="1" stop-color="#ff8df9" />
				<stop offset="1" stop-color="#ff7ee7" />
			</radialGradient>
			<linearGradient id="f125idg" x1="26.765" x2="29.457" y1="18.25" y2="19.211" gradientUnits="userSpaceOnUse">
				<stop stop-color="#e22372" />
				<stop offset="1" stop-color="#e3204b" />
			</linearGradient>
			<linearGradient id="f125idh" x1="26.898" x2="28.428" y1="19.344" y2="19.141" gradientUnits="userSpaceOnUse">
				<stop stop-color="#d8145d" />
				<stop offset="1" stop-color="#d8145d" stop-opacity="0" />
			</linearGradient>
			<linearGradient id="f125idi" x1="5.265" x2="2.572" y1="18.25" y2="19.211" gradientUnits="userSpaceOnUse">
				<stop stop-color="#db256b" />
				<stop offset="1" stop-color="#e3204b" />
			</linearGradient>
			<linearGradient id="f125idj" x1="26.796" x2="29.491" y1="19.906" y2="23.281" gradientUnits="userSpaceOnUse">
				<stop stop-color="#e61a6a" />
				<stop offset="1" stop-color="#e8264d" />
			</linearGradient>
			<linearGradient id="f125idk" x1="26.952" x2="29.648" y1="19.766" y2="23.141" gradientUnits="userSpaceOnUse">
				<stop stop-color="#ff578e" />
				<stop offset="1" stop-color="#ff647e" />
			</linearGradient>
			<linearGradient id="f125idl" x1="5.233" x2="2.538" y1="19.906" y2="23.281" gradientUnits="userSpaceOnUse">
				<stop stop-color="#e61a6a" />
				<stop offset="1" stop-color="#e8264d" />
			</linearGradient>
			<linearGradient id="f125idm" x1="2.655" x2="4.702" y1="23" y2="20" gradientUnits="userSpaceOnUse">
				<stop stop-color="#f85b74" />
				<stop offset="1" stop-color="#ef4267" stop-opacity="0" />
			</linearGradient>
			<linearGradient id="f125idn" x1="17.983" x2="17.983" y1="17.039" y2="13.438" gradientUnits="userSpaceOnUse">
				<stop stop-color="#e31e5c" />
				<stop offset="1" stop-color="#e31e5c" stop-opacity="0" />
			</linearGradient>
			<linearGradient id="f125ido" x1="8.452" x2="17.327" y1="20.688" y2="29.961" gradientUnits="userSpaceOnUse">
				<stop stop-color="#dc2666" />
				<stop offset="1" stop-color="#ff5579" />
			</linearGradient>
			<linearGradient id="f125idp" x1="16.015" x2="16.015" y1="19.008" y2="20.219" gradientUnits="userSpaceOnUse">
				<stop stop-color="#c91e5b" />
				<stop offset="1" stop-color="#c91e5b" stop-opacity="0" />
			</linearGradient>
			<linearGradient id="f125idq" x1="28.921" x2="22.796" y1="19.406" y2="24.485" gradientUnits="userSpaceOnUse">
				<stop stop-color="#ff4f96" />
				<stop offset="1" stop-color="#ff4f96" stop-opacity="0" />
			</linearGradient>
			<linearGradient id="f125idr" x1="0" x2="1.637" y1="2.004" y2=".689" gradientUnits="userSpaceOnUse">
				<stop stop-color="#ff8fd6" />
				<stop offset="1" stop-color="#ff89cf" />
			</linearGradient>
			<linearGradient id="f125ids" x1="0" x2="1.762" y1="2.004" y2=".83" gradientUnits="userSpaceOnUse">
				<stop stop-color="#ff96e2" />
				<stop offset="1" stop-color="#ff87d3" />
			</linearGradient>
			<linearGradient id="f125idt" x1="0" x2="1.762" y1="2.004" y2=".83" gradientUnits="userSpaceOnUse">
				<stop stop-color="#ff9ee9" />
				<stop offset="1" stop-color="#ff93dc" />
			</linearGradient>
			<linearGradient id="f125idu" x1=".334" x2="1.678" y1="1.736" y2=".549" gradientUnits="userSpaceOnUse">
				<stop stop-color="#ff9de6" />
				<stop offset="1" stop-color="#ff94da" />
			</linearGradient>
			<filter id="f125idv" width="4.088" height="4.044" x="25.97" y="15.667" color-interpolation-filters="sRGB" filterUnits="userSpaceOnUse">
				<feFlood flood-opacity="0" result="BackgroundImageFix" />
				<feBlend in="SourceGraphic" in2="BackgroundImageFix" result="shape" />
				<feColorMatrix in="SourceAlpha" result="hardAlpha" values="0 0 0 0 0 0 0 0 0 0 0 0 0 0 0 0 0 0 127 0" />
				<feOffset dx=".1" dy="-.1" />
				<feGaussianBlur stdDeviation=".15" />
				<feComposite in2="hardAlpha" k2="-1" k3="1" operator="arithmetic" />
				<feColorMatrix values="0 0 0 0 0.764706 0 0 0 0 0.152941 0 0 0 0 0.376471 0 0 0 1 0" />
				<feBlend in2="shape" result="effect1_innerShadow_18_16860" />
			</filter>
			<filter id="f125idw" width="3.788" height="3.744" x="26.07" y="15.867" color-interpolation-filters="sRGB" filterUnits="userSpaceOnUse">
				<feFlood flood-opacity="0" result="BackgroundImageFix" />
				<feBlend in="SourceGraphic" in2="BackgroundImageFix" result="shape" />
				<feGaussianBlur result="effect1_foregroundBlur_18_16860" stdDeviation=".125" />
			</filter>
			<filter id="f125idx" width="4.088" height="4.044" x="2.072" y="15.667" color-interpolation-filters="sRGB" filterUnits="userSpaceOnUse">
				<feFlood flood-opacity="0" result="BackgroundImageFix" />
				<feBlend in="SourceGraphic" in2="BackgroundImageFix" result="shape" />
				<feColorMatrix in="SourceAlpha" result="hardAlpha" values="0 0 0 0 0 0 0 0 0 0 0 0 0 0 0 0 0 0 127 0" />
				<feOffset dx=".1" dy="-.1" />
				<feGaussianBlur stdDeviation=".15" />
				<feComposite in2="hardAlpha" k2="-1" k3="1" operator="arithmetic" />
				<feColorMatrix values="0 0 0 0 0.764706 0 0 0 0 0.152941 0 0 0 0 0.376471 0 0 0 1 0" />
				<feBlend in2="shape" result="effect1_innerShadow_18_16860" />
			</filter>
			<filter id="f125idy" width="3.788" height="3.744" x="2.172" y="15.867" color-interpolation-filters="sRGB" filterUnits="userSpaceOnUse">
				<feFlood flood-opacity="0" result="BackgroundImageFix" />
				<feBlend in="SourceGraphic" in2="BackgroundImageFix" result="shape" />
				<feGaussianBlur result="effect1_foregroundBlur_18_16860" stdDeviation=".125" />
			</filter>
			<filter id="f125idz" width="4.228" height="4.645" x="25.913" y="18.855" color-interpolation-filters="sRGB" filterUnits="userSpaceOnUse">
				<feFlood flood-opacity="0" result="BackgroundImageFix" />
				<feBlend in="SourceGraphic" in2="BackgroundImageFix" result="shape" />
				<feColorMatrix in="SourceAlpha" result="hardAlpha" values="0 0 0 0 0 0 0 0 0 0 0 0 0 0 0 0 0 0 127 0" />
				<feOffset dx=".15" dy="-.2" />
				<feGaussianBlur stdDeviation=".15" />
				<feComposite in2="hardAlpha" k2="-1" k3="1" operator="arithmetic" />
				<feColorMatrix values="0 0 0 0 0.760784 0 0 0 0 0.164706 0 0 0 0 0.364706 0 0 0 1 0" />
				<feBlend in2="shape" result="effect1_innerShadow_18_16860" />
			</filter>
			<filter id="f125id10" width="3.978" height="4.345" x="26.119" y="18.964" color-interpolation-filters="sRGB" filterUnits="userSpaceOnUse">
				<feFlood flood-opacity="0" result="BackgroundImageFix" />
				<feBlend in="SourceGraphic" in2="BackgroundImageFix" result="shape" />
				<feGaussianBlur result="effect1_foregroundBlur_18_16860" stdDeviation=".15" />
			</filter>
			<filter id="f125id11" width="4.228" height="4.645" x="2.038" y="18.855" color-interpolation-filters="sRGB" filterUnits="userSpaceOnUse">
				<feFlood flood-opacity="0" result="BackgroundImageFix" />
				<feBlend in="SourceGraphic" in2="BackgroundImageFix" result="shape" />
				<feColorMatrix in="SourceAlpha" result="hardAlpha" values="0 0 0 0 0 0 0 0 0 0 0 0 0 0 0 0 0 0 127 0" />
				<feOffset dx=".15" dy="-.2" />
				<feGaussianBlur stdDeviation=".15" />
				<feComposite in2="hardAlpha" k2="-1" k3="1" operator="arithmetic" />
				<feColorMatrix values="0 0 0 0 0.760784 0 0 0 0 0.164706 0 0 0 0 0.364706 0 0 0 1 0" />
				<feBlend in2="shape" result="effect1_innerShadow_18_16860" />
			</filter>
			<filter id="f125id12" width="3.978" height="4.345" x="2.122" y="19.105" color-interpolation-filters="sRGB" filterUnits="userSpaceOnUse">
				<feFlood flood-opacity="0" result="BackgroundImageFix" />
				<feBlend in="SourceGraphic" in2="BackgroundImageFix" result="shape" />
				<feGaussianBlur result="effect1_foregroundBlur_18_16860" stdDeviation=".15" />
			</filter>
			<filter id="f125id13" width="1.405" height="5.617" x="4.999" y="2.063" color-interpolation-filters="sRGB" filterUnits="userSpaceOnUse">
				<feFlood flood-opacity="0" result="BackgroundImageFix" />
				<feBlend in="SourceGraphic" in2="BackgroundImageFix" result="shape" />
				<feColorMatrix in="SourceAlpha" result="hardAlpha" values="0 0 0 0 0 0 0 0 0 0 0 0 0 0 0 0 0 0 127 0" />
				<feOffset dx=".35" />
				<feGaussianBlur stdDeviation=".225" />
				<feComposite in2="hardAlpha" k2="-1" k3="1" operator="arithmetic" />
				<feColorMatrix values="0 0 0 0 0.796078 0 0 0 0 0.223529 0 0 0 0 0.313726 0 0 0 1 0" />
				<feBlend in2="shape" result="effect1_innerShadow_18_16860" />
			</filter>
			<filter id="f125id14" width="1.305" height="5.617" x="25.976" y="2.063" color-interpolation-filters="sRGB" filterUnits="userSpaceOnUse">
				<feFlood flood-opacity="0" result="BackgroundImageFix" />
				<feBlend in="SourceGraphic" in2="BackgroundImageFix" result="shape" />
				<feColorMatrix in="SourceAlpha" result="hardAlpha" values="0 0 0 0 0 0 0 0 0 0 0 0 0 0 0 0 0 0 127 0" />
				<feOffset dx=".25" />
				<feGaussianBlur stdDeviation=".2" />
				<feComposite in2="hardAlpha" k2="-1" k3="1" operator="arithmetic" />
				<feColorMatrix values="0 0 0 0 0.796078 0 0 0 0 0.223529 0 0 0 0 0.313726 0 0 0 1 0" />
				<feBlend in2="shape" result="effect1_innerShadow_18_16860" />
			</filter>
			<filter id="f125id15" width="22.331" height="11.923" x="4.999" y="5.416" color-interpolation-filters="sRGB" filterUnits="userSpaceOnUse">
				<feFlood flood-opacity="0" result="BackgroundImageFix" />
				<feBlend in="SourceGraphic" in2="BackgroundImageFix" result="shape" />
				<feColorMatrix in="SourceAlpha" result="hardAlpha" values="0 0 0 0 0 0 0 0 0 0 0 0 0 0 0 0 0 0 127 0" />
				<feOffset dx=".3" dy="-.6" />
				<feGaussianBlur stdDeviation=".5" />
				<feComposite in2="hardAlpha" k2="-1" k3="1" operator="arithmetic" />
				<feColorMatrix values="0 0 0 0 0.741176 0 0 0 0 0.176471 0 0 0 0 0.309804 0 0 0 1 0" />
				<feBlend in2="shape" result="effect1_innerShadow_18_16860" />
				<feColorMatrix in="SourceAlpha" result="hardAlpha" values="0 0 0 0 0 0 0 0 0 0 0 0 0 0 0 0 0 0 127 0" />
				<feOffset dx=".3" dy=".3" />
				<feGaussianBlur stdDeviation="1" />
				<feComposite in2="hardAlpha" k2="-1" k3="1" operator="arithmetic" />
				<feColorMatrix values="0 0 0 0 0.741176 0 0 0 0 0.176471 0 0 0 0 0.309804 0 0 0 1 0" />
				<feBlend in2="effect1_innerShadow_18_16860" result="effect2_innerShadow_18_16860" />
			</filter>
			<filter id="f125id16" width="22.012" height="11.053" x="5.108" y="18.908" color-interpolation-filters="sRGB" filterUnits="userSpaceOnUse">
				<feFlood flood-opacity="0" result="BackgroundImageFix" />
				<feBlend in="SourceGraphic" in2="BackgroundImageFix" result="shape" />
				<feColorMatrix in="SourceAlpha" result="hardAlpha" values="0 0 0 0 0 0 0 0 0 0 0 0 0 0 0 0 0 0 127 0" />
				<feOffset dx=".2" dy="-.1" />
				<feGaussianBlur stdDeviation=".2" />
				<feComposite in2="hardAlpha" k2="-1" k3="1" operator="arithmetic" />
				<feColorMatrix values="0 0 0 0 0.807843 0 0 0 0 0.164706 0 0 0 0 0.427451 0 0 0 1 0" />
				<feBlend in2="shape" result="effect1_innerShadow_18_16860" />
			</filter>
		</defs>
	</g>
</svg>